<svg width="32" height="32" viewBox="0 0 32 32" fill="none" xmlns="http://www.w3.org/2000/svg">
  <path d="M16 4C19.3137 4 22 6.68629 22 10C22 13.3137 19.3137 16 16 16C12.6863 16 10 13.3137 10 10C10 6.68629 12.6863 4 16 4Z" fill="#4F46E5"/>
  <path d="M8 20C8 18.8954 8.89543 18 10 18H22C23.1046 18 24 18.8954 24 20V26C24 27.1046 23.1046 28 22 28H10C8.89543 28 8 27.1046 8 26V20Z" fill="#4F46E5"/>
  <path d="M3 12C3 7.02944 7.02944 3 12 3H20C24.9706 3 29 7.02944 29 12V20C29 24.9706 24.9706 29 20 29H12C7.02944 29 3 24.9706 3 20V12Z" stroke="#4F46E5" stroke-width="2"/>
</svg> 